<?xml version="1.0" standalone="no"?><!DOCTYPE svg PUBLIC "-//W3C//DTD SVG 1.1//EN" "http://www.w3.org/Graphics/SVG/1.1/DTD/svg11.dtd"><svg t="1617074143285" class="icon" viewBox="0 0 1024 1024" version="1.1" xmlns="http://www.w3.org/2000/svg" p-id="9067" xmlns:xlink="http://www.w3.org/1999/xlink" width="200" height="200"><defs><style type="text/css"></style></defs><path d="M157.29 98.15h711.49a59.29 59.29 0 0 1 59.29 59.29v711.49a59.29 59.29 0 0 1-59.29 59.29H157.29A59.29 59.29 0 0 1 98 868.93V157.44a59.36 59.36 0 0 1 59.29-59.29z m413.13 635L440.75 571.08a59.28 59.28 0 0 0-83.29-9.3 62.89 62.89 0 0 0-9.3 9.3L157.29 809.64h711.49L738.3 635.77a59.31 59.31 0 0 0-83-11.9 61 61 0 0 0-11.9 11.9l-73 97.38z m120.49-279.26a118.58 118.58 0 1 0-118.58-118.58 118.58 118.58 0 0 0 118.58 118.58z" p-id="9068"></path></svg>